<svg width="32.000000" height="32.000000" viewBox="0 0 32 32" fill="none" xmlns="http://www.w3.org/2000/svg" xmlns:xlink="http://www.w3.org/1999/xlink">
	<desc>
			Created with Pixso.
	</desc>
	<defs>
		<clipPath id="clip4_816">
			<rect id="Frame" width="32.000000" height="32.000000" fill="white" fill-opacity="0"/>
		</clipPath>
	</defs>
	<rect id="Frame" width="32.000000" height="32.000000" fill="#FFFFFF" fill-opacity="0"/>
	<g clip-path="url(#clip4_816)">
		<path id="Vector" d="M22.6663 1.6665L8.66626 1.6665C8.11401 1.6665 7.66626 2.11426 7.66626 2.6665L7.66626 29.3331C7.66626 29.8855 8.11401 30.3331 8.66626 30.3331L22.6663 30.3331C23.2185 30.3331 23.6663 29.8855 23.6663 29.3331L23.6663 2.6665C23.6663 2.11426 23.2185 1.6665 22.6663 1.6665Z" fill="#FFFFFF" fill-opacity="1.000000" fill-rule="nonzero"/>
		<path id="Vector" d="M22.6663 1.6665C23.2185 1.6665 23.6663 2.11426 23.6663 2.6665L23.6663 29.3331C23.6663 29.8855 23.2185 30.3331 22.6663 30.3331L8.66626 30.3331C8.11401 30.3331 7.66626 29.8855 7.66626 29.3331L7.66626 2.6665C7.66626 2.11426 8.11401 1.6665 8.66626 1.6665L22.6663 1.6665Z" stroke="#000000" stroke-opacity="1.000000" stroke-width="0.642927"/>
		<path id="Vector" d="M13.333 4.6665L17.9998 4.6665L17.9998 5.33313L13.333 5.33313L13.333 4.6665Z" fill="#000000" fill-opacity="1.000000" fill-rule="evenodd"/>
		<path id="Vector" d="M16.6665 26.3333C16.6665 26.8855 16.2188 27.3333 15.6665 27.3333C15.1143 27.3333 14.6665 26.8855 14.6665 26.3333C14.6665 25.781 15.1143 25.3333 15.6665 25.3333C16.2188 25.3333 16.6665 25.781 16.6665 26.3333Z" fill="#000000" fill-opacity="1.000000" fill-rule="evenodd"/>
	</g>
</svg>
