<svg width="32.000000" height="32.000000" viewBox="0 0 32 32" fill="none" xmlns="http://www.w3.org/2000/svg" xmlns:xlink="http://www.w3.org/1999/xlink">
	<desc>
			Created with Pixso.
	</desc>
	<defs>
		<clipPath id="clip4_821">
			<rect id="Frame" width="32.000000" height="32.000000" fill="white" fill-opacity="0"/>
		</clipPath>
	</defs>
	<rect id="Frame" width="32.000000" height="32.000000" fill="#FFFFFF" fill-opacity="0"/>
	<g clip-path="url(#clip4_821)">
		<path id="Vector" d="M29.3337 9.6665L10.667 9.6665C10.1147 9.6665 9.66699 10.1143 9.66699 10.6665L9.66699 21.9999C9.66699 22.5521 10.1147 22.9999 10.667 22.9999L29.3337 22.9999C29.886 22.9999 30.3337 22.5521 30.3337 21.9999L30.3337 10.6665C30.3337 10.1143 29.886 9.6665 29.3337 9.6665Z" fill="#FFFFFF" fill-opacity="1.000000" fill-rule="nonzero"/>
		<path id="Vector" d="M29.3337 9.6665C29.886 9.6665 30.3337 10.1143 30.3337 10.6665L30.3337 21.9999C30.3337 22.5521 29.886 22.9999 29.3337 22.9999L10.667 22.9999C10.1147 22.9999 9.66699 22.5521 9.66699 21.9999L9.66699 10.6665C9.66699 10.1143 10.1147 9.6665 10.667 9.6665L29.3337 9.6665Z" stroke="#000000" stroke-opacity="1.000000" stroke-width="0.642927"/>
		<path id="Vector" d="M9.66699 11.9998L19.6797 17.4906C19.8794 17.6001 20.1211 17.6001 20.3208 17.4906L30.3337 11.9998" stroke="#000000" stroke-opacity="1.000000" stroke-width="0.642927"/>
		<path id="Vector" d="M17.2048 15.8811L17.5925 16.4235L10.2969 22.8556L9.90918 22.3131L17.2048 15.8811Z" fill="#000000" fill-opacity="1.000000" fill-rule="nonzero"/>
		<path id="Vector" d="M22.9639 15.8811L22.5762 16.4235L29.8718 22.8556L30.2595 22.3131L22.9639 15.8811Z" fill="#000000" fill-opacity="1.000000" fill-rule="nonzero"/>
		<path id="Vector" d="M2.66699 16L6.00024 16L6.00024 16.6666L2.66699 16.6666L2.66699 16Z" fill="#000000" fill-opacity="1.000000" fill-rule="evenodd"/>
		<path id="Vector" d="M1.3335 13.9998L6.00024 13.9998L6.00024 14.6664L1.3335 14.6664L1.3335 13.9998Z" fill="#000000" fill-opacity="1.000000" fill-rule="evenodd"/>
		<path id="Vector" d="M0.000244141 11.9998L6.00024 11.9998L6.00024 12.6664L0.000244141 12.6664L0.000244141 11.9998Z" fill="#000000" fill-opacity="1.000000" fill-rule="nonzero"/>
	</g>
</svg>
