<svg width="32.000000" height="32.000000" viewBox="0 0 32 32" fill="none" xmlns="http://www.w3.org/2000/svg" xmlns:xlink="http://www.w3.org/1999/xlink">
	<desc>
			Created with Pixso.
	</desc>
	<defs>
		<clipPath id="clip4_808">
			<rect id="Frame" width="32.000000" height="32.000000" fill="white" fill-opacity="0"/>
		</clipPath>
	</defs>
	<rect id="Frame" width="32.000000" height="32.000000" fill="#FFFFFF" fill-opacity="0"/>
	<g clip-path="url(#clip4_808)">
		<path id="Vector" d="M9.66675 19.2422L9.51514 19.2422L9.41577 19.3563L9.41577 19.3563L9.41577 19.3563L9.41553 19.3564L9.41528 19.3569L9.41162 19.361L9.39575 19.3785C9.38135 19.3945 9.35913 19.4186 9.32935 19.45C9.26978 19.5123 9.18066 19.6028 9.06519 19.712C8.8335 19.9307 8.49683 20.2227 8.07886 20.5144C7.26221 21.0842 6.16357 21.6331 4.94531 21.665C4.93237 21.6171 4.91943 21.5464 4.91064 21.4489C4.88501 21.1676 4.90161 20.7755 4.93896 20.3633C4.97583 19.9556 5.03149 19.546 5.07812 19.2371C5.10132 19.083 5.12231 18.9546 5.13745 18.865C5.14502 18.8202 5.15112 18.7852 5.15527 18.7615L5.15991 18.7346L5.16113 18.7279L5.16138 18.7263L5.16138 18.726L5.16138 18.726L5.16138 18.726L5.20752 18.4723L4.97339 18.364C2.25684 17.1074 0.333496 15.037 0.333496 12.606C0.333496 10.7256 1.3457 8.99829 3.03198 7.72961C4.71802 6.46106 7.06274 5.6665 9.66675 5.6665C12.2708 5.6665 14.6155 6.46106 16.3018 7.72961C17.9878 8.99829 19.0002 10.7256 19.0002 12.606C19.0002 14.4825 17.9917 16.1322 16.3093 17.3251C14.6248 18.5195 12.2781 19.2422 9.66675 19.2422Z" fill="#FFFFFF" fill-opacity="1.000000" fill-rule="nonzero"/>
		<path id="Vector" d="M9.51514 19.2422L9.41577 19.3563L9.41577 19.3563L9.41577 19.3563L9.41553 19.3564L9.41528 19.3569L9.41162 19.361L9.39575 19.3785C9.38135 19.3945 9.35913 19.4186 9.32935 19.45C9.26978 19.5123 9.18066 19.6028 9.06519 19.712C8.8335 19.9307 8.49683 20.2227 8.07886 20.5144C7.26221 21.0842 6.16357 21.6331 4.94531 21.665C4.93237 21.6171 4.91943 21.5464 4.91064 21.4489C4.88501 21.1676 4.90161 20.7755 4.93896 20.3633C4.97583 19.9556 5.03149 19.546 5.07812 19.2371C5.10132 19.083 5.12231 18.9546 5.13745 18.865C5.14502 18.8202 5.15112 18.7852 5.15527 18.7615L5.15991 18.7346L5.16113 18.7279L5.16138 18.7263L5.16138 18.726L5.16138 18.726L5.16138 18.726L5.20752 18.4723L4.97339 18.364C2.25684 17.1074 0.333496 15.037 0.333496 12.606C0.333496 10.7256 1.3457 8.99829 3.03198 7.72961C4.71802 6.46106 7.06274 5.6665 9.66675 5.6665C12.2708 5.6665 14.6155 6.46106 16.3018 7.72961C17.9878 8.99829 19.0002 10.7256 19.0002 12.606C19.0002 14.4825 17.9917 16.1322 16.3093 17.3251C14.6248 18.5195 12.2781 19.2422 9.66675 19.2422L9.51514 19.2422Z" stroke="#000000" stroke-opacity="1.000000" stroke-width="0.642927"/>
		<path id="Vector" d="M10.6187 11.3333C10.6187 11.5697 10.5471 11.7999 10.4038 12.0239C10.2607 12.2417 10.0554 12.4221 9.78784 12.5653C9.52026 12.7084 9.19995 12.7799 8.82666 12.7799L8.58398 12.7799L8.77051 14.4133L9.33057 14.4133L9.396 13.2933C9.74438 13.2747 10.0679 13.1781 10.3665 13.0039C10.6653 12.8235 10.908 12.5902 11.0945 12.304C11.2812 12.0115 11.3745 11.688 11.3745 11.3333C11.3745 11.0533 11.3218 10.795 11.2158 10.5586C11.1165 10.3221 10.9731 10.1168 10.7866 9.94263C10.6062 9.76221 10.3914 9.62219 10.1426 9.52258C9.8999 9.4231 9.63232 9.37329 9.33984 9.37329C8.97266 9.37329 8.66162 9.41992 8.40649 9.51331C8.15771 9.60046 7.94604 9.72791 7.77197 9.896C7.59766 10.0577 7.43896 10.2474 7.2959 10.4653L7.90259 10.8479C8.04565 10.6115 8.22607 10.4248 8.44385 10.288C8.66797 10.1448 8.93555 10.0732 9.24658 10.0732C9.52661 10.0732 9.76929 10.123 9.97461 10.2227C10.1799 10.3221 10.3386 10.4653 10.4507 10.652C10.5625 10.8386 10.6187 11.0658 10.6187 11.3333ZM8.55591 15.6266C8.55591 15.7635 8.60571 15.8848 8.70532 15.9906C8.81104 16.0902 8.93237 16.14 9.06934 16.14C9.2124 16.14 9.33374 16.0902 9.43335 15.9906C9.53271 15.8848 9.58252 15.7635 9.58252 15.6266C9.58252 15.4835 9.53271 15.3622 9.43335 15.2626C9.33374 15.1631 9.2124 15.1133 9.06934 15.1133C8.93237 15.1133 8.81104 15.1631 8.70532 15.2626C8.60571 15.3622 8.55591 15.4835 8.55591 15.6266Z" fill="#000000" fill-opacity="1.000000" fill-rule="nonzero"/>
		<path id="Vector" d="M21.3335 26.6665L21.4849 26.6665L21.5842 26.7802L21.5842 26.7802L21.5842 26.7803L21.5845 26.7803L21.585 26.781L21.5889 26.7854L21.6067 26.8051C21.6228 26.8229 21.6477 26.8496 21.6807 26.8842C21.7468 26.9532 21.8455 27.0532 21.9734 27.1738C22.23 27.4152 22.6028 27.7375 23.0657 28.0594C23.9753 28.6924 25.2046 29.3042 26.5696 29.3322C26.5872 29.2766 26.6047 29.1888 26.6162 29.0635C26.6445 28.751 26.6262 28.3173 26.585 27.8634C26.5442 27.4141 26.4827 26.9629 26.4312 26.6227C26.4053 26.453 26.3823 26.3115 26.3655 26.2129C26.3572 26.1636 26.3506 26.1249 26.3459 26.0988L26.3408 26.0691L26.3394 26.0616L26.3391 26.0599L26.3389 26.0594L26.3389 26.0594L26.2927 25.8053L26.5273 25.6971C29.5303 24.3124 31.667 22.0259 31.667 19.3331C31.667 17.2526 30.5432 15.3434 28.676 13.943C26.8088 12.5426 24.2139 11.6665 21.3335 11.6665C18.4531 11.6665 15.8584 12.5426 13.9912 13.943C12.124 15.3434 11.0002 17.2526 11.0002 19.3331C11.0002 21.4103 12.1201 23.2341 13.9834 24.5511C15.8491 25.8699 18.4458 26.6665 21.3335 26.6665Z" fill="#FFFFFF" fill-opacity="1.000000" fill-rule="nonzero"/>
		<path id="Vector" d="M21.4849 26.6665L21.5842 26.7802L21.5842 26.7802L21.5842 26.7803L21.5845 26.7803L21.585 26.781L21.5889 26.7854L21.6067 26.8051C21.6228 26.8229 21.6477 26.8496 21.6807 26.8842C21.7468 26.9532 21.8455 27.0532 21.9734 27.1738C22.23 27.4152 22.6028 27.7375 23.0657 28.0594C23.9753 28.6924 25.2046 29.3042 26.5696 29.3322C26.5872 29.2766 26.6047 29.1888 26.6162 29.0635C26.6445 28.751 26.6262 28.3173 26.585 27.8634C26.5442 27.4141 26.4827 26.9629 26.4312 26.6227C26.4053 26.453 26.3823 26.3115 26.3655 26.2129C26.3572 26.1636 26.3506 26.1249 26.3459 26.0988L26.3408 26.0691L26.3394 26.0616L26.3391 26.0599L26.3389 26.0594L26.3389 26.0594L26.2927 25.8053L26.5273 25.6971C29.5303 24.3124 31.667 22.0259 31.667 19.3331C31.667 17.2526 30.5432 15.3434 28.676 13.943C26.8088 12.5426 24.2139 11.6665 21.3335 11.6665C18.4531 11.6665 15.8584 12.5426 13.9912 13.943C12.124 15.3434 11.0002 17.2526 11.0002 19.3331C11.0002 21.4103 12.1201 23.2341 13.9834 24.5511C15.8491 25.8699 18.4458 26.6665 21.3335 26.6665L21.4849 26.6665Z" stroke="#000000" stroke-opacity="1.000000" stroke-width="0.642927"/>
		<path id="Vector" d="M16.3333 20.3331C17.0698 20.3331 17.6667 19.7362 17.6667 18.9999C17.6667 18.2634 17.0698 17.6665 16.3333 17.6665C15.5969 17.6665 15 18.2634 15 18.9999C15 19.7362 15.5969 20.3331 16.3333 20.3331Z" fill="#FFFFFF" fill-opacity="1.000000" fill-rule="nonzero"/>
		<path id="Vector" d="M16.3333 20.3331C15.5969 20.3331 15 19.7362 15 18.9999C15 18.2634 15.5969 17.6665 16.3333 17.6665C17.0698 17.6665 17.6667 18.2634 17.6667 18.9999C17.6667 19.7362 17.0698 20.3331 16.3333 20.3331Z" stroke="#000000" stroke-opacity="1.000000" stroke-width="0.642927"/>
		<path id="Vector" d="M21 20.3331C21.7366 20.3331 22.3335 19.7362 22.3335 18.9999C22.3335 18.2634 21.7366 17.6665 21 17.6665C20.2637 17.6665 19.6667 18.2634 19.6667 18.9999C19.6667 19.7362 20.2637 20.3331 21 20.3331Z" fill="#FFFFFF" fill-opacity="1.000000" fill-rule="nonzero"/>
		<path id="Vector" d="M21 20.3331C20.2637 20.3331 19.6667 19.7362 19.6667 18.9999C19.6667 18.2634 20.2637 17.6665 21 17.6665C21.7366 17.6665 22.3335 18.2634 22.3335 18.9999C22.3335 19.7362 21.7366 20.3331 21 20.3331Z" stroke="#000000" stroke-opacity="1.000000" stroke-width="0.642927"/>
		<path id="Vector" d="M25.6665 20.3331C26.4031 20.3331 27 19.7362 27 18.9999C27 18.2634 26.4031 17.6665 25.6665 17.6665C24.9302 17.6665 24.3333 18.2634 24.3333 18.9999C24.3333 19.7362 24.9302 20.3331 25.6665 20.3331Z" fill="#FFFFFF" fill-opacity="1.000000" fill-rule="nonzero"/>
		<path id="Vector" d="M25.6665 20.3331C24.9302 20.3331 24.3333 19.7362 24.3333 18.9999C24.3333 18.2634 24.9302 17.6665 25.6665 17.6665C26.4031 17.6665 27 18.2634 27 18.9999C27 19.7362 26.4031 20.3331 25.6665 20.3331Z" stroke="#000000" stroke-opacity="1.000000" stroke-width="0.642927"/>
	</g>
</svg>
