<svg width="100.000000" height="100.000000" viewBox="0 0 100 100" fill="none" xmlns="http://www.w3.org/2000/svg" xmlns:xlink="http://www.w3.org/1999/xlink">
	<desc>
			Created with Pixso.
	</desc>
	<defs>
		<clipPath id="clip3_308">
			<rect id="onmacabim-logo1 2" width="100.000000" height="100.000000" fill="white" fill-opacity="0"/>
		</clipPath>
	</defs>
	<rect id="onmacabim-logo1 2" width="100.000000" height="100.000000" fill="#FFFFFF" fill-opacity="0"/>
	<g clip-path="url(#clip3_308)">
		<path id="Vector" d="M96.1415 13.0889C94.1106 13.0889 92.4618 14.7368 92.4618 16.7693L92.4618 40.7019L75.2759 14.6961L59.4512 14.6961L59.4512 64.9767L66.8079 64.9767L66.8079 27.7389L91.5967 64.9767L99.8186 64.9767L99.8186 16.7693C99.8186 14.7368 98.1731 13.0889 96.1415 13.0889ZM26.5928 60.6478C17.8763 60.6478 14.8158 51.3033 14.8158 39.7749C14.8158 28.2481 17.9684 18.9036 26.5928 18.9036C35.2155 18.9036 38.368 28.2481 38.368 39.7749C38.368 51.3033 35.3091 60.6478 26.5928 60.6478ZM-0.0834961 39.7733C-0.0834961 54.5129 11.8604 66.4609 26.5911 66.4609C41.3251 66.4609 53.2698 54.5129 53.2698 39.7733C53.2698 25.0377 41.3251 13.0889 26.5911 13.0889C11.8604 13.0889 -0.0834961 25.0377 -0.0834961 39.7733ZM32.3219 80.1929L32.3219 86.5494L28.3173 86.5494L28.3173 85.9531C28.3173 85.9531 27.8668 86.5494 26.3777 86.5494C24.8885 86.5494 21.472 86.015 21.472 82.5374C21.472 79.059 27.9449 78.6859 27.9449 78.6859C27.6501 77.7686 26.0983 77.7686 26.0983 77.7686L22.6573 77.7686C22.1318 77.7686 21.7051 77.3418 21.7051 76.8163C21.7051 76.2917 22.1318 75.864 22.6573 75.864L27.4644 75.864C32.4376 75.864 32.3236 80.1913 32.3236 80.1913L32.3219 80.1929ZM28.3188 79.3995C25.6339 79.4915 24.9668 80.7501 24.9668 82.6302C24.9668 84.3222 26.3174 85.1148 27.3096 85.1148C28.2106 85.1148 28.3188 84.4778 28.3188 84.4778L28.3188 79.3995ZM58.2162 80.1913L58.2162 86.5477L54.2107 86.5477L54.2107 85.9514C54.2107 85.9514 53.7603 86.5477 52.2694 86.5477C50.7787 86.5477 47.3638 86.0134 47.3638 82.5358C47.3638 79.0573 53.8368 78.6834 53.8368 78.6834C53.5419 77.767 51.99 77.767 51.99 77.767L48.5491 77.767C48.0221 77.767 47.5968 77.3401 47.5968 76.8147C47.5968 76.2901 48.0245 75.8624 48.5491 75.8624L53.3545 75.8624C58.3278 75.8624 58.2145 80.1897 58.2145 80.1897L58.2162 80.1913ZM54.2091 79.3979C51.5225 79.4899 50.8552 80.7485 50.8552 82.6278C50.8552 84.3206 52.2059 85.1132 53.1997 85.1132C54.1007 85.1132 54.2091 84.4753 54.2091 84.4753L54.2091 79.3979ZM76.4253 74.4776C77.4305 74.4776 78.2468 73.6629 78.2468 72.6569C78.2468 71.6517 77.4321 70.8346 76.4253 70.8346C75.4176 70.8346 74.603 71.6492 74.603 72.6569C74.603 73.6646 75.4176 74.4776 76.4253 74.4776ZM14.3995 75.772C14.3995 75.772 12.2555 75.5814 10.6328 77.5462C9.87842 76.5833 8.64026 75.772 6.62732 75.772C6.62732 75.772 4.6543 75.6457 3.75903 77.376L3.75903 75.8665L-0.183716 75.8665L-0.183716 86.551L3.75903 86.551L3.75903 78.8496C3.98877 78.4806 4.58179 77.7385 5.67175 77.7385C7.07202 77.7385 7.70264 78.9596 7.70264 79.6952L7.70264 85.3959C7.70264 86.0313 8.60596 86.5477 9.72205 86.5477C10.8373 86.5477 11.7415 86.0313 11.7415 85.3959L11.7415 80.5139C11.7415 80.2605 11.6754 79.7229 11.462 79.0989C11.6592 78.7356 12.3052 77.7385 13.4652 77.7385C14.8322 77.7385 15.4471 78.9596 15.4471 79.6952L15.4471 85.3959C15.4471 86.0313 16.3302 86.5477 17.4186 86.5477C18.5077 86.5477 19.3907 86.0313 19.3907 85.3959L19.3907 80.2662C19.3907 80.2662 19.385 75.7736 14.3979 75.7736L14.3995 75.772ZM78.395 77.8387C78.395 76.7487 77.512 75.8665 76.4229 75.8665C75.3345 75.8665 74.4514 76.7487 74.4514 77.8387L74.4514 86.551L78.395 86.551L78.395 77.8387ZM95.1802 75.7736C95.1802 75.7736 93.0361 75.583 91.4135 77.5479C90.6591 76.585 89.4209 75.7736 87.4088 75.7736C87.4088 75.7736 85.4349 75.6474 84.5405 77.3776L84.5405 75.8665L80.5994 75.8665L80.5994 86.551L84.5421 86.551L84.5421 78.8496C84.7694 78.4806 85.3657 77.7385 86.4548 77.7385C87.8552 77.7385 88.4849 78.9596 88.4849 79.6952L88.4849 85.3959C88.4849 86.0313 89.3892 86.5477 90.5043 86.5477C91.6204 86.5477 92.5237 86.0313 92.5237 85.3959L92.5237 80.5139C92.5237 80.2605 92.4578 79.7229 92.2444 79.0989C92.4423 78.7356 93.0898 77.7385 94.2499 77.7385C95.616 77.7385 96.2319 78.9596 96.2319 79.6952L96.2319 85.3959C96.2319 86.0313 97.1141 86.5477 98.2032 86.5477C99.2924 86.5477 100.175 86.0313 100.175 85.3959L100.175 80.2662C100.175 80.2662 100.17 75.7736 95.1802 75.7736ZM67.0515 76.2616L64.342 76.2616L64.342 70.8346L60.2959 70.8346L60.2959 85.2093C60.2959 85.9498 60.8954 86.5494 61.6359 86.5494L68.2905 86.5494C69.936 86.5494 72.2797 85.7429 72.2797 81.6014L72.2797 81.2079C72.2797 77.0656 68.6995 76.2599 67.054 76.2599L67.0515 76.2616ZM68.1357 81.9142C68.1357 84.547 66.6458 85.0611 65.5999 85.0611L64.342 85.0611L64.342 78.1906L65.1086 78.1906C66.8315 78.1906 68.1357 78.2973 68.1357 81.3374L68.1357 81.9142ZM44.2642 82.6693C43.9636 82.6693 43.7363 82.772 43.5352 82.9594C43.334 83.1459 43.2631 83.2347 43.1417 83.3593C42.5707 83.9491 42.2252 84.6147 40.6636 84.6147C38.9269 84.6147 38.3452 83.176 38.3452 81.4018C38.3452 79.6276 38.9269 78.189 40.6636 78.189C41.5385 78.189 42.3287 78.5539 42.8998 79.1429C43.0211 79.2675 43.1311 79.4044 43.2305 79.5486C43.448 79.7253 43.7217 79.8337 44.0222 79.8337C44.7236 79.8337 45.2915 79.2659 45.2915 78.5661C45.2915 78.3454 45.2288 78.1425 45.131 77.9609C44.9802 77.7882 44.8198 77.6228 44.6471 77.468C43.5514 76.4799 42.0444 75.8698 40.3801 75.8698C37.028 75.8698 34.3113 78.3478 34.3113 81.4034C34.3113 84.4599 37.028 86.9371 40.3801 86.9371C43.9816 86.9371 45.2222 84.7181 45.3729 84.5454C45.4731 84.3654 45.5334 84.1609 45.5334 83.9401C45.5334 83.2388 44.9656 82.6726 44.2642 82.6726L44.2642 82.6693ZM-0.183716 72.4915L58.2162 72.4915L58.2162 70.8362L-0.183716 70.8362L-0.183716 72.4915ZM80.5994 72.4915L100.175 72.4915L100.175 70.8362L80.5994 70.8362L80.5994 72.4915ZM66.6353 72.4915L72.2772 72.4915L72.2772 70.8362L66.6368 70.8362L66.6353 72.4915Z" fill="#FFFFFF" fill-opacity="1.000000" fill-rule="nonzero"/>
	</g>
</svg>
