<svg width="80.000000" height="80.000000" viewBox="0 0 80 80" fill="none" xmlns="http://www.w3.org/2000/svg" xmlns:xlink="http://www.w3.org/1999/xlink">
	<desc>
			Created with Pixso.
	</desc>
	<defs>
		<clipPath id="clip2_2269">
			<rect id="onmacabim-logo1 2" width="80.000000" height="80.000000" fill="white" fill-opacity="0"/>
		</clipPath>
	</defs>
	<rect id="onmacabim-logo1 2" width="80.000000" height="80.000000" fill="#FFFFFF" fill-opacity="0"/>
	<g clip-path="url(#clip2_2269)">
		<path id="Vector" d="M76.9132 10.4709C75.2885 10.4709 73.9695 11.7893 73.9695 13.4153L73.9695 32.5613L60.2207 11.7568L47.5609 11.7568L47.5609 51.9812L53.4463 51.9812L53.4463 22.1909L73.2773 51.9812L79.8549 51.9812L79.8549 13.4153C79.8549 11.7893 78.5385 10.4709 76.9132 10.4709ZM21.2742 48.5181C14.301 48.5181 11.8527 41.0425 11.8527 31.8198C11.8527 22.5984 14.3748 15.1228 21.2742 15.1228C28.1724 15.1228 30.6945 22.5984 30.6945 31.8198C30.6945 41.0425 28.2473 48.5181 21.2742 48.5181ZM-0.0667725 31.8184C-0.0667725 43.6101 9.48828 53.1687 21.2728 53.1687C33.0601 53.1687 42.6158 43.6101 42.6158 31.8184C42.6158 20.03 33.0601 10.4709 21.2728 10.4709C9.48828 10.4709 -0.0667725 20.03 -0.0667725 31.8184ZM25.8575 64.1543L25.8575 69.2393L22.6538 69.2393L22.6538 68.7622C22.6538 68.7622 22.2935 69.2393 21.1022 69.2393C19.9109 69.2393 17.1776 68.8118 17.1776 66.0298C17.1776 63.2471 22.356 62.9485 22.356 62.9485C22.1201 62.2148 20.8787 62.2148 20.8787 62.2148L18.1259 62.2148C17.7056 62.2148 17.364 61.8733 17.364 61.4529C17.364 61.0332 17.7056 60.6912 18.1259 60.6912L21.9716 60.6912C25.9501 60.6912 25.8589 64.1528 25.8589 64.1528L25.8575 64.1543ZM22.6552 63.5195C20.5072 63.593 19.9734 64.5999 19.9734 66.104C19.9734 67.4575 21.054 68.0918 21.8477 68.0918C22.5685 68.0918 22.6552 67.582 22.6552 67.582L22.6552 63.5195ZM46.5729 64.1528L46.5729 69.238L43.3685 69.238L43.3685 68.761C43.3685 68.761 43.0082 69.238 41.8156 69.238C40.6229 69.238 37.8911 68.8105 37.8911 66.0286C37.8911 63.2456 43.0695 62.9465 43.0695 62.9465C42.8335 62.2134 41.592 62.2134 41.592 62.2134L38.8392 62.2134C38.4176 62.2134 38.0774 61.8721 38.0774 61.4517C38.0774 61.032 38.4196 60.6897 38.8392 60.6897L42.6836 60.6897C46.6622 60.6897 46.5717 64.1516 46.5717 64.1516L46.5729 64.1528ZM43.3672 63.5181C41.218 63.5918 40.6842 64.5986 40.6842 66.1021C40.6842 67.4563 41.7648 68.0903 42.5598 68.0903C43.2805 68.0903 43.3672 67.5801 43.3672 67.5801L43.3672 63.5181ZM61.1403 59.582C61.9445 59.582 62.5974 58.9302 62.5974 58.1255C62.5974 57.3213 61.9457 56.6675 61.1403 56.6675C60.3341 56.6675 59.6824 57.3193 59.6824 58.1255C59.6824 58.9316 60.3341 59.582 61.1403 59.582ZM11.5197 60.6174C11.5197 60.6174 9.80444 60.4648 8.50623 62.0369C7.90271 61.2666 6.91211 60.6174 5.30188 60.6174C5.30188 60.6174 3.72339 60.5164 3.0072 61.9006L3.0072 60.6931L-0.146973 60.6931L-0.146973 69.2407L3.0072 69.2407L3.0072 63.0796C3.19104 62.7844 3.66541 62.1907 4.53735 62.1907C5.65771 62.1907 6.16211 63.1675 6.16211 63.7561L6.16211 68.3167C6.16211 68.825 6.88477 69.238 7.77759 69.238C8.6698 69.238 9.39319 68.825 9.39319 68.3167L9.39319 64.4109C9.39319 64.2083 9.34033 63.7781 9.16968 63.2791C9.32739 62.9883 9.84412 62.1907 10.7721 62.1907C11.8657 62.1907 12.3577 63.1675 12.3577 63.7561L12.3577 68.3167C12.3577 68.825 13.0642 69.238 13.9348 69.238C14.8062 69.238 15.5126 68.825 15.5126 68.3167L15.5126 64.2129C15.5126 64.2129 15.5081 60.6187 11.5183 60.6187L11.5197 60.6174ZM62.7161 62.2708C62.7161 61.3989 62.0095 60.6931 61.1383 60.6931C60.2676 60.6931 59.5612 61.3989 59.5612 62.2708L59.5612 69.2407L62.7161 69.2407L62.7161 62.2708ZM76.1442 60.6187C76.1442 60.6187 74.429 60.4663 73.1307 62.0381C72.5272 61.2678 71.5367 60.6187 69.927 60.6187C69.927 60.6187 68.3479 60.5178 67.6324 61.9019L67.6324 60.6931L64.4795 60.6931L64.4795 69.2407L67.6337 69.2407L67.6337 63.0796C67.8156 62.7844 68.2926 62.1907 69.1638 62.1907C70.2842 62.1907 70.7878 63.1675 70.7878 63.7561L70.7878 68.3167C70.7878 68.825 71.5112 69.238 72.4034 69.238C73.2963 69.238 74.019 68.825 74.019 68.3167L74.019 64.4109C74.019 64.2083 73.9662 63.7781 73.7954 63.2791C73.9539 62.9883 74.4719 62.1907 75.3999 62.1907C76.4928 62.1907 76.9855 63.1675 76.9855 63.7561L76.9855 68.3167C76.9855 68.825 77.6913 69.238 78.5626 69.238C79.434 69.238 80.1396 68.825 80.1396 68.3167L80.1396 64.2129C80.1396 64.2129 80.1357 60.6187 76.1442 60.6187ZM53.6412 61.009L51.4736 61.009L51.4736 56.6675L48.2367 56.6675L48.2367 68.1672C48.2367 68.7598 48.7163 69.2393 49.3087 69.2393L54.6324 69.2393C55.9489 69.2393 57.8237 68.5942 57.8237 65.281L57.8237 64.9663C57.8237 61.6523 54.9596 61.0078 53.6432 61.0078L53.6412 61.009ZM54.5085 65.5312C54.5085 67.6375 53.3167 68.0488 52.4799 68.0488L51.4736 68.0488L51.4736 62.5522L52.0869 62.5522C53.4652 62.5522 54.5085 62.6377 54.5085 65.0698L54.5085 65.5312ZM35.4114 66.1353C35.1709 66.1353 34.989 66.2175 34.8281 66.3674C34.6671 66.5166 34.6105 66.5876 34.5133 66.6873C34.0565 67.1592 33.7802 67.6917 32.5309 67.6917C31.1415 67.6917 30.6761 66.5408 30.6761 65.1213C30.6761 63.7019 31.1415 62.551 32.5309 62.551C33.2308 62.551 33.8629 62.843 34.3198 63.3142C34.4169 63.4138 34.5049 63.5234 34.5844 63.6387C34.7584 63.78 34.9773 63.8667 35.2178 63.8667C35.7789 63.8667 36.2332 63.4126 36.2332 62.8528C36.2332 62.676 36.183 62.5139 36.1047 62.3687C35.9843 62.2305 35.8558 62.0981 35.7177 61.9744C34.8412 61.1838 33.6355 60.6956 32.3041 60.6956C29.6224 60.6956 27.449 62.6782 27.449 65.1226C27.449 67.5679 29.6224 69.5496 32.3041 69.5496C35.1852 69.5496 36.1777 67.7744 36.2983 67.6362C36.3785 67.4922 36.4268 67.3286 36.4268 67.1519C36.4268 66.5908 35.9725 66.1379 35.4114 66.1379L35.4114 66.1353ZM-0.146973 57.9932L46.5729 57.9932L46.5729 56.6689L-0.146973 56.6689L-0.146973 57.9932ZM64.4795 57.9932L80.1396 57.9932L80.1396 56.6689L64.4795 56.6689L64.4795 57.9932ZM53.3082 57.9932L57.8218 57.9932L57.8218 56.6689L53.3094 56.6689L53.3082 57.9932Z" fill="#171615" fill-opacity="1.000000" fill-rule="nonzero"/>
	</g>
</svg>
